<svg width="47" height="38" viewBox="0 0 47 38" fill="none" xmlns="http://www.w3.org/2000/svg">
<g id="Group">
<g id="OBJECTS">
<g id="Group_2">
<g id="Group_3">
<path id="Vector" d="M45.6755 18.909C45.6622 25.0381 42.861 29.621 38.6503 32.6872C34.4248 35.7642 28.7681 37.3184 23.0854 37.3182C17.4027 37.318 11.7464 35.7634 7.52172 32.6863C3.31179 29.62 0.511809 25.0374 0.500001 18.9092C0.513339 12.7801 3.3145 8.19724 7.52522 5.131C11.7507 2.05403 17.4074 0.499797 23.0901 0.5C28.7728 0.500203 34.4291 2.05484 38.6538 5.1319C42.8637 8.1982 45.6637 12.7808 45.6755 18.909Z" fill="url(#paint0_linear_274_375)" stroke="#D48E27"/>
<path id="Vector_2" d="M11.6346 8.06982C7.46095 8.06982 4.0791 11.6049 4.0791 15.9677C5.61545 39.193 40.5697 39.1666 42.0934 15.9677C42.0934 11.6049 38.7115 8.06982 34.5378 8.06982H11.6346Z" fill="black"/>
<path id="Vector_3" d="M33.6323 22.2133H12.543C9.54607 22.2133 7.11694 19.6741 7.11694 16.5413C7.11694 13.4086 9.54607 10.8694 12.543 10.8694H33.6323C36.6293 10.8694 39.0584 13.4086 39.0584 16.5413C39.0584 19.6741 36.6293 22.2133 33.6323 22.2133Z" fill="#D48E27"/>
<path id="Vector_4" d="M24.8371 27.5686C23.1967 27.4334 19.3132 28.3403 19.37 25.5109C19.37 25.1053 19.6823 24.7788 20.0703 24.7788H26.1053C26.4933 24.7788 26.8057 25.1053 26.8057 25.5109C26.8057 26.6486 25.9255 27.5686 24.8371 27.5686Z" fill="#D48E27"/>
<g id="Group_4">
<path id="Vector_5" d="M17.2468 18.576H13.3287C12.111 18.5991 12.3886 16.9206 12.3696 16.1094C12.3696 15.5554 12.7987 15.1069 13.3287 15.1069H17.2468C18.4646 15.0838 18.1869 16.7623 18.2059 17.5736C18.2059 18.1276 17.7768 18.576 17.2468 18.576Z" fill="#010101"/>
<path id="Vector_6" d="M32.8436 18.576H28.9287C27.7109 18.5991 27.9886 16.9206 27.9696 16.1094C27.9696 15.5554 28.3987 15.1069 28.9287 15.1069H32.8436C34.0614 15.0838 33.7838 16.7623 33.8027 17.5736C33.8027 18.1276 33.3736 18.576 32.8436 18.576Z" fill="#010101"/>
</g>
</g>
</g>
</g>
</g>
<defs>
<linearGradient id="paint0_linear_274_375" x1="23.0878" y1="0" x2="23.0878" y2="37.8182" gradientUnits="userSpaceOnUse">
<stop stop-color="#D48E27"/>
<stop offset="1" stop-color="#F6D3A0"/>
</linearGradient>
</defs>
</svg>
