<svg width="158" height="32" viewBox="0 0 158 32" fill="none" xmlns="http://www.w3.org/2000/svg">
<path d="M73.0005 21.0574C73.0005 26.459 69.3913 29.6792 63.3372 29.6792H61.358C60.4433 29.6792 59.6948 29.0114 59.6948 28.1952V19.6328C59.6948 19.2321 60.0607 18.8908 60.5098 18.8908L63.437 18.8463C63.6699 18.8314 63.8695 18.683 63.9194 18.4753L64.5015 15.6409C64.5514 15.3738 64.3185 15.1215 64.0025 15.1215L60.4599 15.1661C59.9942 15.1661 59.6283 14.8396 59.6117 14.4389L59.5451 10.8032C59.5451 10.5658 59.7613 10.358 60.0441 10.358L64.0358 10.2987C64.3185 10.2987 64.5347 10.1058 64.5347 9.8535L64.4682 6.29197C64.4682 6.0397 64.252 5.8468 63.9693 5.8468L59.4786 5.90617C56.7177 5.95069 54.5222 7.96885 54.5721 10.4322L54.6553 14.5131C54.6719 14.9286 54.306 15.2551 53.8403 15.2699L51.8445 15.2996C51.5617 15.2996 51.3455 15.4925 51.3455 15.7448L51.3954 18.5643C51.3954 18.8166 51.6116 19.0095 51.8944 19.0095L53.8902 18.9798C54.3559 18.9798 54.7218 19.3063 54.7385 19.707L54.8881 28.1655C54.9048 28.9965 54.1563 29.6792 53.2249 29.6792H49.3996C43.3455 29.6792 39.7363 26.459 39.7363 21.0425V8.6218C39.7363 3.22019 43.3455 0 49.3996 0H63.3372C69.3913 0 73.0005 3.22019 73.0005 8.6218V21.0574Z" fill="#A6A2A2"/>
<path d="M105.209 0H91.0639C84.9197 0 81.2568 3.31398 81.2568 8.87292V21.6554C81.2568 27.2296 84.9197 30.5436 91.0639 30.5436H105.192C111.336 30.5436 114.999 27.2296 114.999 21.6707V8.87292C115.016 3.31398 111.353 0 105.209 0ZM98.1365 21.1973C94.5243 21.1973 91.5872 18.54 91.5872 15.2718C91.5872 12.0036 94.5243 9.34634 98.1365 9.34634C101.749 9.34634 104.686 12.0036 104.686 15.2718C104.686 18.54 101.749 21.1973 98.1365 21.1973ZM108.129 7.45264C108.045 7.6359 107.927 7.80389 107.775 7.95661C107.606 8.09406 107.42 8.20096 107.218 8.27732C107.015 8.35368 106.796 8.39949 106.576 8.39949C106.121 8.39949 105.699 8.24677 105.378 7.95661C105.226 7.80389 105.108 7.6359 105.023 7.45264C104.939 7.26938 104.888 7.07085 104.888 6.87231C104.888 6.67378 104.939 6.47525 105.023 6.29198C105.108 6.09345 105.226 5.94073 105.378 5.78801C105.766 5.43676 106.357 5.26877 106.897 5.37568C107.015 5.39095 107.117 5.42149 107.218 5.46731C107.319 5.49785 107.42 5.54367 107.522 5.60475C107.606 5.65057 107.69 5.72693 107.775 5.78801C107.927 5.94073 108.045 6.09345 108.129 6.29198C108.214 6.47525 108.264 6.67378 108.264 6.87231C108.264 7.07085 108.214 7.26938 108.129 7.45264Z" fill="#A6A2A2"/>
<path d="M145.659 0C146.69 0 147.661 0.195046 148.571 0.585139C149.482 0.975232 150.279 1.50718 150.962 2.18097C151.645 2.85477 152.184 3.64086 152.58 4.53926C152.975 5.43765 153.173 6.39515 153.173 7.41176V22.2353C153.173 23.2519 152.975 24.2153 152.58 25.1255C152.184 26.0357 151.645 26.8277 150.962 27.5015C150.279 28.1753 149.482 28.7073 148.571 29.0974C147.661 29.4875 146.69 29.6825 145.659 29.6825H130.596C129.566 29.6825 128.595 29.4875 127.685 29.0974C126.774 28.7073 125.977 28.1753 125.294 27.5015C124.611 26.8277 124.072 26.0357 123.676 25.1255C123.281 24.2153 123.083 23.2519 123.083 22.2353V7.41176C123.083 6.39515 123.281 5.43765 123.676 4.53926C124.072 3.64086 124.611 2.85477 125.294 2.18097C125.977 1.50718 126.774 0.975232 127.685 0.585139C128.595 0.195046 129.566 0 130.596 0H145.659ZM133.436 11.1354H129.662V23.1928H133.436V11.1354ZM131.567 10.1779C132.07 10.1779 132.508 10.0006 132.879 9.64593C133.251 9.2913 133.436 8.85392 133.436 8.3338C133.436 7.81367 133.251 7.3763 132.879 7.02167C132.508 6.66704 132.07 6.48972 131.567 6.48972C131.04 6.48972 130.59 6.66704 130.219 7.02167C129.848 7.3763 129.662 7.81367 129.662 8.3338C129.662 8.85392 129.848 9.2913 130.219 9.64593C130.59 10.0006 131.04 10.1779 131.567 10.1779ZM146.594 16.2066C146.594 15.3555 146.354 14.5221 145.875 13.7064C145.396 12.8908 144.773 12.2702 144.006 11.8446C143.311 11.4664 142.502 11.2654 141.579 11.2418C140.656 11.2181 139.824 11.3718 139.081 11.7028V11.1354H135.306V23.1928H139.081V15.8165L140.626 15.0718C140.818 14.9772 141.082 14.9299 141.417 14.9299C141.753 14.9299 142.004 14.989 142.172 15.1072C142.316 15.1781 142.46 15.3318 142.604 15.5682C142.747 15.8047 142.819 16.0174 142.819 16.2066V23.1928H146.594V16.2066Z" fill="#A6A2A2"/>
<path d="M28.612 1.72217H4.97001C3.19014 1.72217 1.74609 3.14666 1.74609 4.90244V28.2244C1.74609 29.9802 3.19014 31.4047 4.97001 31.4047H28.612C30.3919 31.4047 31.8359 29.9802 31.8359 28.2244V4.90244C31.8359 3.14666 30.3919 1.72217 28.612 1.72217ZM25.3277 12.2436C25.3411 12.4291 25.3411 12.6212 25.3411 12.8067C25.3411 18.5511 20.9082 25.17 12.8081 25.17C10.3096 25.17 7.99242 24.4545 6.04464 23.2221C6.40062 23.2619 6.74316 23.2751 7.10585 23.2751C9.16781 23.2751 11.0619 22.5861 12.5731 21.42C10.6387 21.3802 9.01333 20.128 8.45586 18.4053C9.13422 18.5047 9.74542 18.5047 10.4439 18.3258C8.42899 17.9217 6.91778 16.1725 6.91778 14.059V14.006C7.50212 14.3306 8.1872 14.5294 8.90586 14.5559C8.30167 14.1594 7.80636 13.6216 7.46415 12.9904C7.12194 12.3591 6.94346 11.6541 6.94465 10.9383C6.94465 10.13 7.15958 9.38794 7.54242 8.74526C9.71184 11.3822 12.9693 13.1049 16.6231 13.2904C15.9985 10.342 18.2351 7.95019 20.9216 7.95019C22.1911 7.95019 23.3329 8.47361 24.1388 9.32168C25.1329 9.13617 26.0866 8.77176 26.9329 8.27484C26.6038 9.28193 25.912 10.13 24.9986 10.6667C25.8851 10.5739 26.7448 10.3288 27.5374 9.99086C26.9396 10.8588 26.1874 11.6274 25.3277 12.2436Z" fill="#A6A2A2"/>
</svg>
