<svg width="181" height="37" viewBox="0 0 181 37" fill="none" xmlns="http://www.w3.org/2000/svg">
<path d="M83.6269 25.4537C83.6269 31.7266 79.4924 35.4661 72.557 35.4661H70.2897C69.2417 35.4661 68.3843 34.6906 68.3843 33.7428V23.7993C68.3843 23.334 68.8035 22.9377 69.318 22.9377L72.6713 22.886C72.9381 22.8688 73.1667 22.6964 73.2239 22.4552L73.8907 19.1636C73.9479 18.8535 73.6811 18.5605 73.3191 18.5605L69.2608 18.6122C68.7273 18.6122 68.3081 18.2331 68.2891 17.7678L68.2129 13.5457C68.2129 13.2699 68.4606 13.0287 68.7845 13.0287L73.3572 12.9597C73.6811 12.9597 73.9288 12.7357 73.9288 12.4428L73.8526 8.3068C73.8526 8.01384 73.6049 7.78983 73.281 7.78983L68.1367 7.85878C64.9738 7.91048 62.4588 10.2542 62.516 13.1148L62.6112 17.8539C62.6303 18.3365 62.2111 18.7156 61.6776 18.7328L59.3912 18.7673C59.0673 18.7673 58.8197 18.9913 58.8197 19.2843L58.8768 22.5586C58.8768 22.8515 59.1245 23.0756 59.4484 23.0756L61.7348 23.0411C62.2683 23.0411 62.6874 23.4202 62.7065 23.8855L62.878 33.7084C62.897 34.6734 62.0396 35.4661 60.9727 35.4661H56.5904C49.6551 35.4661 45.5205 31.7266 45.5205 25.4365V11.0124C45.5205 4.73957 49.6551 1 56.5904 1H72.557C79.4924 1 83.6269 4.73957 83.6269 11.0124V25.4537Z" fill="#D48E27"/>
<path d="M120.439 0H104.235C97.1961 0 93 3.8485 93 10.304V25.1482C93 31.6215 97.1961 35.47 104.235 35.47H120.42C127.458 35.47 131.654 31.6215 131.654 25.166V10.304C131.674 3.8485 127.478 0 120.439 0ZM112.337 24.6162C108.199 24.6162 104.834 21.5303 104.834 17.735C104.834 13.9397 108.199 10.8538 112.337 10.8538C116.475 10.8538 119.84 13.9397 119.84 17.735C119.84 21.5303 116.475 24.6162 112.337 24.6162ZM123.784 8.65468C123.688 8.8675 123.552 9.06259 123.378 9.23994C123.185 9.39955 122.972 9.5237 122.74 9.61237C122.508 9.70105 122.257 9.75425 122.005 9.75425C121.483 9.75425 121 9.5769 120.632 9.23994C120.458 9.06259 120.323 8.8675 120.226 8.65468C120.13 8.44186 120.072 8.21131 120.072 7.98075C120.072 7.7502 120.13 7.51964 120.226 7.30682C120.323 7.07627 120.458 6.89892 120.632 6.72157C121.077 6.31366 121.754 6.11858 122.373 6.24272C122.508 6.26046 122.624 6.29593 122.74 6.34913C122.856 6.3846 122.972 6.43781 123.088 6.50875C123.185 6.56195 123.282 6.65063 123.378 6.72157C123.552 6.89892 123.688 7.07627 123.784 7.30682C123.881 7.51964 123.939 7.7502 123.939 7.98075C123.939 8.21131 123.881 8.44186 123.784 8.65468Z" fill="#D48E27"/>
<path d="M32.7737 1H5.69285C3.65409 1 2 2.6317 2 4.64286V31.3571C2 33.3683 3.65409 35 5.69285 35H32.7737C34.8125 35 36.4666 33.3683 36.4666 31.3571V4.64286C36.4666 2.6317 34.8125 1 32.7737 1ZM29.0116 13.0518C29.027 13.2643 29.027 13.4844 29.027 13.6969C29.027 20.2768 23.9494 27.8585 14.6711 27.8585C11.8091 27.8585 9.15489 27.0388 6.9238 25.6272C7.33155 25.6728 7.72392 25.6879 8.13936 25.6879C10.5012 25.6879 12.6708 24.8987 14.4018 23.5629C12.1861 23.5174 10.3243 22.083 9.68574 20.1098C10.4628 20.2237 11.1629 20.2237 11.963 20.0188C9.65497 19.5558 7.92394 17.5522 7.92394 15.1313V15.0705C8.59327 15.4424 9.378 15.6701 10.2012 15.7004C9.50912 15.2463 8.94177 14.6303 8.54978 13.9072C8.15779 13.1842 7.95336 12.3766 7.95472 11.5567C7.95472 10.6308 8.20091 9.7808 8.63943 9.04464C11.1244 12.0652 14.8557 14.0384 19.041 14.2509C18.3255 10.8737 20.8874 8.13393 23.9648 8.13393C25.4188 8.13393 26.7267 8.73348 27.6499 9.70491C28.7885 9.49241 29.881 9.075 30.8504 8.5058C30.4734 9.65937 29.681 10.6308 28.6347 11.2455C29.6502 11.1393 30.635 10.8585 31.5428 10.4714C30.8581 11.4656 29.9964 12.346 29.0116 13.0518Z" fill="#D48E27"/>
<path d="M168.761 1C170.028 1 171.222 1.22342 172.342 1.67025C173.462 2.11708 174.441 2.7264 175.281 3.49821C176.121 4.27001 176.784 5.17045 177.271 6.19952C177.757 7.22859 178 8.32537 178 9.48984V26.4695C178 27.634 177.757 28.7376 177.271 29.7802C176.784 30.8228 176.121 31.73 175.281 32.5018C174.441 33.2736 173.462 33.8829 172.342 34.3298C171.222 34.7766 170.028 35 168.761 35H150.239C148.972 35 147.778 34.7766 146.658 34.3298C145.538 33.8829 144.559 33.2736 143.719 32.5018C142.879 31.73 142.216 30.8228 141.729 29.7802C141.243 28.7376 141 27.634 141 26.4695V9.48984C141 8.32537 141.243 7.22859 141.729 6.19952C142.216 5.17045 142.879 4.27001 143.719 3.49821C144.559 2.7264 145.538 2.11708 146.658 1.67025C147.778 1.22342 148.972 1 150.239 1H168.761ZM153.731 13.7551H149.09V27.5663H153.731V13.7551ZM151.432 12.6583C152.051 12.6583 152.589 12.4552 153.046 12.049C153.503 11.6428 153.731 11.1418 153.731 10.546C153.731 9.95022 153.503 9.44922 153.046 9.04301C152.589 8.6368 152.051 8.43369 151.432 8.43369C150.784 8.43369 150.232 8.6368 149.775 9.04301C149.318 9.44922 149.09 9.95022 149.09 10.546C149.09 11.1418 149.318 11.6428 149.775 12.049C150.232 12.4552 150.784 12.6583 151.432 12.6583ZM169.91 19.5639C169.91 18.589 169.616 17.6344 169.026 16.7001C168.437 15.7658 167.671 15.055 166.728 14.5675C165.873 14.1342 164.878 13.904 163.744 13.8769C162.609 13.8499 161.585 14.0259 160.671 14.405V13.7551H156.03V27.5663H160.671V19.1171L162.572 18.264C162.808 18.1557 163.132 18.1016 163.545 18.1016C163.957 18.1016 164.267 18.1693 164.473 18.3047C164.65 18.3859 164.827 18.5619 165.004 18.8327C165.18 19.1035 165.269 19.3473 165.269 19.5639V27.5663H169.91V19.5639Z" fill="#D48E27"/>
</svg>
