<svg width="33" height="32" viewBox="0 0 33 32" fill="none" xmlns="http://www.w3.org/2000/svg">
<g id="&#240;&#159;&#166;&#134; icon &#34;search normal 1&#34;">
<g id="Group">
<path id="Vector" d="M15.4443 30.5118C6.93111 30.5118 0 23.6652 0 15.2559C0 6.84654 6.93111 0 15.4443 0C23.9575 0 30.8886 6.84654 30.8886 15.2559C30.8886 23.6652 23.9575 30.5118 15.4443 30.5118ZM15.4443 2.23257C8.16666 2.23257 2.26014 8.0819 2.26014 15.2559C2.26014 22.4299 8.16666 28.2792 15.4443 28.2792C22.722 28.2792 28.6285 22.4299 28.6285 15.2559C28.6285 8.0819 22.722 2.23257 15.4443 2.23257Z" fill="white"/>
<path id="Vector_2" d="M31.2658 32C30.9795 32 30.6932 31.8959 30.4672 31.6726L27.4537 28.6958C27.0167 28.2642 27.0167 27.5498 27.4537 27.1182C27.8907 26.6865 28.6139 26.6865 29.0509 27.1182L32.0644 30.0949C32.5014 30.5265 32.5014 31.241 32.0644 31.6726C31.8384 31.8959 31.5521 32 31.2658 32Z" fill="white"/>
</g>
</g>
</svg>
